<?xml version="1.0" standalone="no"?>
<!DOCTYPE svg PUBLIC "-//W3C//DTD SVG 20010904//EN"
 "http://www.w3.org/TR/2001/REC-SVG-20010904/DTD/svg10.dtd">
<svg version="1.0" xmlns="http://www.w3.org/2000/svg"
 width="512.000000pt" height="512.000000pt" viewBox="0 0 512.000000 512.000000"
 preserveAspectRatio="xMidYMid meet">
<metadata>
Created by potrace 1.11, written by Peter Selinger 2001-2013
</metadata>
<g transform="translate(0.000000,512.000000) scale(0.100000,-0.100000)"
fill="#000000" stroke="none">
<path d="M1260 5081 c-158 -44 -194 -61 -237 -108 -67 -74 -74 -150 -29 -316
l27 -98 -31 -35 c-16 -19 -30 -44 -30 -56 0 -12 50 -209 111 -437 139 -520
136 -510 153 -573 40 -145 66 -244 66 -250 0 -5 -11 -8 -25 -8 -37 0 -70 -19
-88 -50 -14 -24 -17 -60 -17 -237 l-1 -208 -38 -18 c-81 -37 -81 -137 0 -174
l38 -18 1 -895 0 -896 -33 -12 c-35 -13 -67 -56 -67 -92 0 -36 32 -79 67 -92
l33 -12 1 -116 c0 -63 2 -126 5 -139 16 -90 98 -186 185 -219 53 -21 66 -21
1206 -21 1144 -1 1153 -1 1205 20 76 30 132 80 165 147 26 52 28 68 32 192 l3
135 37 18 c81 38 81 137 0 174 l-38 18 0 895 0 895 38 18 c81 37 81 137 0 174
l-38 18 -1 208 c0 273 -7 287 -150 287 -39 0 -70 3 -70 6 0 3 32 123 71 267
39 144 73 269 75 277 2 8 24 92 49 185 25 94 57 213 71 265 65 248 125 468
134 497 39 119 15 168 -97 197 -37 10 -81 22 -98 27 -27 9 -349 95 -385 104
-8 2 -58 15 -110 29 -273 75 -290 77 -329 34 -22 -23 -29 -43 -91 -278 -22
-85 -43 -162 -45 -170 -2 -8 -14 -55 -27 -104 -26 -103 -14 -110 -125 74 -42
69 -82 136 -90 148 -18 29 -75 54 -107 46 -40 -10 -64 -42 -222 -308 l-154
-260 -1 -235 c0 -130 -1 -363 -1 -518 0 -254 -4 -303 -22 -274 -5 7 -150 538
-161 591 -3 12 -63 236 -120 445 -7 28 -36 138 -65 245 -44 169 -55 199 -81
223 -16 15 -40 27 -54 27 -20 0 -26 7 -35 43 -53 202 -79 255 -151 300 -73 45
-143 44 -309 -2z"/>
</g>
</svg>
