<svg width="634px" height="348px" viewBox="0 0 634 348" version="1.1" xmlns="http://www.w3.org/2000/svg" xmlns:xlink="http://www.w3.org/1999/xlink">
    <!-- Generator: Sketch 49.3 (51167) - http://www.bohemiancoding.com/sketch -->
    <desc>Created with Sketch.</desc>
    <defs>
        <polygon id="path-1" points="0.06 0.781 497.405 0.781 497.405 164.579 0.06 164.579"></polygon>
        <polygon id="path-3" points="0.6999375 0.270138967 59.263 0.270138967 59.263 58.94 0.6999375 58.94"></polygon>
    </defs>
    <g id="Page-1" stroke="none" stroke-width="1" fill="none" fill-rule="evenodd">
        <g id="2796388">
            <g id="Group-4" transform="translate(176.000000, 0.000000)" fill="#F8F7F5">
                <polyline id="Fill-1" points="72.009 107.895 16.588 119.864 0.209 44.026 55.629 32.057 72.009 107.895"></polyline>
                <polygon id="Fill-3" points="130.598 123.713 319.486 123.713 319.486 0.881 130.598 0.881"></polygon>
            </g>
            <path d="M426.745,57.104 C426.745,71.299 415.237,82.807 401.042,82.807 C386.846,82.807 375.339,71.299 375.339,57.104 C375.339,42.908 386.846,31.401 401.042,31.401 C415.237,31.401 426.745,42.908 426.745,57.104" id="Fill-5" fill="#DFDFDA"></path>
            <polyline id="Fill-6" fill="#F8F7F5" points="409.68 57.104 396.256 64.854 396.256 49.353 409.68 57.104"></polyline>
            <polygon id="Fill-7" fill="#DFDFDA" points="306.598 123.713 495.486 123.713 495.486 101.648 306.598 101.648"></polygon>
            <polyline id="Fill-8" fill="#F8F7F5" points="324.955 112.681 322.23 114.253 319.507 115.826 319.507 109.536 324.955 112.681"></polyline>
            <polygon id="Fill-9" fill="#F8F7F5" points="340.61 113.181 479.94 113.181 479.94 112.181 340.61 112.181"></polygon>
            <path d="M343.431,112.681 C343.431,113.828 342.501,114.758 341.354,114.758 C340.207,114.758 339.277,113.828 339.277,112.681 C339.277,111.534 340.207,110.604 341.354,110.604 C342.501,110.604 343.431,111.534 343.431,112.681" id="Fill-10" fill="#F8F7F5"></path>
            <path d="M628.194,263.625 L445.787,263.625 C442.757,263.625 440.3,261.168 440.3,258.138 L440.3,94.836 C440.3,91.806 442.757,89.349 445.787,89.349 L628.194,89.349 C631.224,89.349 633.681,91.806 633.681,94.836 L633.681,258.138 C633.681,261.168 631.224,263.625 628.194,263.625" id="Fill-11" fill="#F8F7F5"></path>
            <path d="M633.681,108.808 L440.3,108.808 L440.3,95.758 C440.3,92.218 443.17,89.349 446.709,89.349 L627.272,89.349 C630.811,89.349 633.681,92.218 633.681,95.758 L633.681,108.808" id="Fill-12" fill="#ECECE8"></path>
            <path d="M453.626,99.111 C453.626,99.953 452.943,100.636 452.1,100.636 C451.258,100.636 450.575,99.953 450.575,99.111 C450.575,98.268 451.258,97.585 452.1,97.585 C452.943,97.585 453.626,98.268 453.626,99.111" id="Fill-13" fill="#FDFCFB"></path>
            <path d="M462.778,99.111 C462.778,99.953 462.095,100.636 461.253,100.636 C460.41,100.636 459.727,99.953 459.727,99.111 C459.727,98.268 460.41,97.585 461.253,97.585 C462.095,97.585 462.778,98.268 462.778,99.111" id="Fill-14" fill="#FDFCFB"></path>
            <path d="M471.93,99.111 C471.93,99.953 471.248,100.636 470.405,100.636 C469.562,100.636 468.88,99.953 468.88,99.111 C468.88,98.268 469.562,97.585 470.405,97.585 C471.248,97.585 471.93,98.268 471.93,99.111" id="Fill-15" fill="#FDFCFB"></path>
            <polygon id="Fill-16" fill="#FDFCFB" points="537.406 127.139 610.427 127.139 610.427 124.496 537.406 124.496"></polygon>
            <polygon id="Fill-17" fill="#FDFCFB" points="537.406 138.015 610.427 138.015 610.427 135.372 537.406 135.372"></polygon>
            <polygon id="Fill-18" fill="#FDFCFB" points="537.406 148.89 610.427 148.89 610.427 146.247 537.406 146.247"></polygon>
            <polygon id="Fill-19" fill="#FDFCFB" points="537.406 159.766 610.427 159.766 610.427 157.123 537.406 157.123"></polygon>
            <polygon id="Fill-20" fill="#FDFCFB" points="537.406 170.641 573.917 170.641 573.917 167.998 537.406 167.998"></polygon>
            <polygon id="Fill-21" fill="#FDFCFB" points="459.848 192.033 532.87 192.033 532.87 189.389 459.848 189.389"></polygon>
            <polygon id="Fill-22" fill="#FDFCFB" points="459.848 202.908 532.87 202.908 532.87 200.265 459.848 200.265"></polygon>
            <polygon id="Fill-23" fill="#FDFCFB" points="459.848 213.784 532.87 213.784 532.87 211.14 459.848 211.14"></polygon>
            <polygon id="Fill-24" fill="#FDFCFB" points="459.848 224.659 532.87 224.659 532.87 222.016 459.848 222.016"></polygon>
            <polygon id="Fill-25" fill="#FDFCFB" points="496.359 235.535 532.87 235.535 532.87 232.891 496.359 232.891"></polygon>
            <polygon id="Fill-26" fill="#FDFCFB" points="545.485 238.457 607.971 238.457 607.971 186.466 545.485 186.466"></polygon>
            <polyline id="Fill-27" fill="#ECECE8" points="545.378 222.757 563.844 209.819 576.728 218.733 596.992 201.586 607.971 212.462 607.971 238.457 545.485 238.457 545.378 222.757"></polyline>
            <path d="M583.042,201.586 C583.042,204.477 580.699,206.821 577.808,206.821 C574.918,206.821 572.574,204.477 572.574,201.586 C572.574,198.696 574.918,196.352 577.808,196.352 C580.699,196.352 583.042,198.696 583.042,201.586" id="Fill-28" fill="#ECECE8"></path>
            <polygon id="Fill-29" fill="#FDFCFB" points="459.848 174.886 522.335 174.886 522.335 122.894 459.848 122.894"></polygon>
            <polyline id="Fill-30" fill="#ECECE8" points="459.741 159.185 478.207 146.247 491.092 155.161 511.355 138.015 522.335 148.89 522.335 174.886 459.848 174.886 459.741 159.185"></polyline>
            <g id="Group-35" transform="translate(0.000000, 132.000000)">
                <mask id="mask-2" fill="white">
                    <use xlink:href="#path-1"></use>
                </mask>
                <g id="Clip-32"></g>
                <path d="M497.405,6.015 C497.405,8.905 495.062,11.248 492.172,11.248 C489.281,11.248 486.937,8.905 486.937,6.015 C486.937,3.124 489.281,0.781 492.172,0.781 C495.062,0.781 497.405,3.124 497.405,6.015" id="Fill-31" fill="#ECECE8" mask="url(#mask-2)"></path>
                <path d="M227.993,164.579 L4.651,164.579 C2.082,164.579 0,162.497 0,159.928 L0,38.569 L232.644,38.569 L232.644,159.928 C232.644,162.497 230.562,164.579 227.993,164.579" id="Fill-33" fill="#F8F7F5" mask="url(#mask-2)"></path>
                <polygon id="Fill-34" fill="#ECECE8" mask="url(#mask-2)" points="0.06 61.98 232.644 61.98 232.644 38.569 0.06 38.569"></polygon>
            </g>
            <path d="M16.031,182.313 C16.031,183.327 15.21,184.149 14.196,184.149 C13.183,184.149 12.361,183.327 12.361,182.313 C12.361,181.3 13.183,180.478 14.196,180.478 C15.21,180.478 16.031,181.3 16.031,182.313" id="Fill-36" fill="#FDFCFB"></path>
            <path d="M27.042,182.313 C27.042,183.327 26.22,184.149 25.207,184.149 C24.193,184.149 23.372,183.327 23.372,182.313 C23.372,181.3 24.193,180.478 25.207,180.478 C26.22,180.478 27.042,181.3 27.042,182.313" id="Fill-37" fill="#FDFCFB"></path>
            <path d="M38.053,182.313 C38.053,183.327 37.231,184.149 36.217,184.149 C35.204,184.149 34.382,183.327 34.382,182.313 C34.382,181.3 35.204,180.478 36.217,180.478 C37.231,180.478 38.053,181.3 38.053,182.313" id="Fill-38" fill="#FDFCFB"></path>
            <polygon id="Fill-39" fill="#ECECE8" points="116.822 216.033 204.67 216.033 204.67 212.852 116.822 212.852"></polygon>
            <polygon id="Fill-40" fill="#ECECE8" points="116.822 229.116 204.67 229.116 204.67 225.936 116.822 225.936"></polygon>
            <polygon id="Fill-41" fill="#ECECE8" points="116.822 242.2 204.67 242.2 204.67 239.02 116.822 239.02"></polygon>
            <polygon id="Fill-42" fill="#ECECE8" points="116.822 255.283 204.67 255.283 204.67 252.103 116.822 252.103"></polygon>
            <polygon id="Fill-43" fill="#ECECE8" points="116.822 268.367 160.746 268.367 160.746 265.187 116.822 265.187"></polygon>
            <polygon id="Fill-44" fill="#FDFCFB" points="19.352 273.172 94.525 273.172 94.525 210.624 19.352 210.624"></polygon>
            <polyline id="Fill-45" fill="#ECECE8" points="19.223 254.284 41.438 238.718 56.938 249.443 81.317 228.815 94.525 241.899 94.525 273.172 19.352 273.172 19.223 254.284"></polyline>
            <path d="M64.534,228.815 C64.534,232.292 61.716,235.112 58.238,235.112 C54.76,235.112 51.941,232.292 51.941,228.815 C51.941,225.337 54.76,222.518 58.238,222.518 C61.716,222.518 64.534,225.337 64.534,228.815" id="Fill-46" fill="#ECECE8"></path>
            <polyline id="Fill-47" fill="#FFFFFE" points="241.017 121.588 185.597 133.557 169.218 57.719 224.638 45.75 241.017 121.588"></polyline>
            <path d="M241.017,121.588 C241.017,121.588 240.98,121.46 240.924,121.219 C240.865,120.963 240.784,120.61 240.678,120.15 C240.466,119.194 240.157,117.81 239.756,116.013 C238.959,112.389 237.799,107.119 236.33,100.45 C233.42,87.11 229.293,68.19 224.407,45.799 L224.688,45.98 C208,49.592 189.156,53.67 169.279,57.972 L169.273,57.973 L169.472,57.664 C175.573,85.995 181.221,112.225 185.804,133.512 L185.552,133.35 C202.329,129.773 216.165,126.824 225.824,124.765 C230.655,123.746 234.438,122.948 237.032,122.4 C238.317,122.134 239.302,121.929 239.988,121.787 C240.658,121.65 241.017,121.588 241.017,121.588 C241.017,121.588 240.695,121.673 240.041,121.822 C239.368,121.974 238.398,122.191 237.136,122.475 C234.557,123.044 230.798,123.875 225.997,124.936 C216.318,127.053 202.453,130.087 185.642,133.765 L185.434,133.81 L185.389,133.602 C180.78,112.32 175.099,86.098 168.963,57.774 L168.908,57.52 L169.163,57.464 L169.169,57.463 C189.049,53.178 207.897,49.116 224.588,45.519 L224.82,45.469 L224.869,45.7 C229.673,68.172 233.733,87.162 236.595,100.55 C238.006,107.208 239.12,112.47 239.886,116.087 C240.259,117.87 240.546,119.243 240.743,120.19 C240.835,120.642 240.906,120.989 240.956,121.24 C241.002,121.474 241.017,121.588 241.017,121.588" id="Fill-48" fill="#1A282B"></path>
            <path d="M206.403,65.642 C206.433,65.782 200.428,67.198 192.993,68.804 C185.554,70.411 179.501,71.599 179.471,71.458 C179.441,71.317 185.444,69.902 192.883,68.295 C200.319,66.689 206.373,65.501 206.403,65.642" id="Fill-49" fill="#1A282B"></path>
            <path d="M222.392,69.085 C222.423,69.226 213.157,71.347 201.699,73.821 C190.238,76.296 180.925,78.188 180.894,78.048 C180.864,77.907 190.128,75.787 201.589,73.312 C213.047,70.837 222.362,68.945 222.392,69.085" id="Fill-50" fill="#1A282B"></path>
            <path d="M223.877,75.96 C223.907,76.101 214.642,78.221 203.184,80.696 C191.722,83.171 182.409,85.063 182.379,84.923 C182.349,84.782 191.613,82.662 203.074,80.187 C214.531,77.712 223.847,75.82 223.877,75.96" id="Fill-51" fill="#1A282B"></path>
            <path d="M225.362,82.835 C225.392,82.976 216.126,85.096 204.669,87.571 C193.207,90.046 183.894,91.938 183.864,91.798 C183.834,91.657 193.097,89.537 204.559,87.061 C216.016,84.587 225.331,82.695 225.362,82.835" id="Fill-52" fill="#1A282B"></path>
            <path d="M226.846,89.71 C226.877,89.85 217.611,91.971 206.154,94.446 C194.692,96.921 185.379,98.813 185.348,98.672 C185.318,98.532 194.582,96.412 206.044,93.936 C217.501,91.462 226.816,89.57 226.846,89.71" id="Fill-53" fill="#1A282B"></path>
            <path d="M228.331,96.585 C228.362,96.725 219.096,98.846 207.638,101.32 C196.177,103.796 186.864,105.688 186.833,105.547 C186.803,105.407 196.067,103.287 207.529,100.811 C218.986,98.337 228.301,96.444 228.331,96.585" id="Fill-54" fill="#1A282B"></path>
            <path d="M229.816,103.46 C229.846,103.601 220.581,105.721 209.123,108.195 C197.661,110.671 188.348,112.563 188.318,112.422 C188.288,112.282 197.552,110.162 209.013,107.686 C220.471,105.212 229.786,103.319 229.816,103.46" id="Fill-55" fill="#1A282B"></path>
            <path d="M212.109,114.48 C212.139,114.621 207.17,115.813 201.011,117.143 C194.851,118.474 189.833,119.438 189.803,119.297 C189.773,119.157 194.74,117.964 200.902,116.634 C207.06,115.304 212.078,114.339 212.109,114.48" id="Fill-56" fill="#1A282B"></path>
            <polyline id="Fill-57" fill="#DE4D59" points="483.931 239.873 498.114 276.29 504.028 266.737 512.22 277.495 521.993 268.202 512.681 259.231 521.274 253.418 483.931 239.873"></polyline>
            <path d="M478.593,245.256 C478.67,245.377 476.355,246.984 473.424,248.842 C470.491,250.702 468.052,252.111 467.975,251.99 C467.898,251.868 470.213,250.262 473.145,248.403 C476.076,246.543 478.515,245.134 478.593,245.256" id="Fill-58" fill="#1A282B"></path>
            <path d="M479.694,237.921 C479.672,237.988 478.8,237.763 477.415,237.32 C476.031,236.876 474.136,236.203 472.082,235.369 C470.025,234.536 468.193,233.715 466.88,233.097 C465.565,232.478 464.769,232.058 464.799,231.993 C464.827,231.926 465.676,232.226 467.025,232.759 C468.552,233.377 470.322,234.094 472.277,234.885 C474.235,235.663 476.009,236.366 477.539,236.973 C478.888,237.504 479.719,237.851 479.694,237.921" id="Fill-59" fill="#1A282B"></path>
            <path d="M483.973,221.386 C484.043,221.373 484.243,222.14 484.489,223.395 C484.735,224.649 485.021,226.392 485.264,228.327 C485.506,230.262 485.659,232.022 485.729,233.298 C485.801,234.575 485.795,235.367 485.724,235.373 C485.577,235.383 485.233,232.248 484.747,228.391 C484.267,224.535 483.827,221.412 483.973,221.386" id="Fill-60" fill="#1A282B"></path>
            <path d="M503.607,229.534 C503.667,229.679 501.04,230.81 498.083,232.705 C495.123,234.596 492.784,236.256 492.688,236.123 C492.647,236.066 493.185,235.59 494.098,234.875 C495.013,234.165 496.302,233.209 497.805,232.263 C500.807,230.341 503.566,229.41 503.607,229.534" id="Fill-61" fill="#1A282B"></path>
            <path d="M153.968,246.074 C153.875,246.082 154,244.456 153.302,241.668 C152.976,240.274 152.315,238.627 151.279,236.884 C150.234,235.148 148.732,233.336 146.692,231.8 C144.657,230.279 142.093,228.986 139.135,228.466 C136.198,227.965 132.884,228.06 129.73,229.261 C128.142,229.814 126.611,230.648 125.204,231.701 C124.477,232.201 123.842,232.826 123.176,233.427 C122.575,234.094 121.943,234.746 121.424,235.501 C119.223,238.429 117.983,242.193 117.947,246.071 C117.982,249.95 119.222,253.715 121.423,256.643 C121.942,257.4 122.573,258.052 123.175,258.718 C123.841,259.32 124.476,259.946 125.203,260.446 C126.61,261.498 128.142,262.333 129.73,262.885 C132.885,264.087 136.199,264.181 139.136,263.68 C142.094,263.16 144.658,261.868 146.693,260.345 C148.733,258.809 150.235,256.998 151.279,255.261 C152.315,253.518 152.976,251.872 153.302,250.477 C154,247.691 153.875,246.064 153.968,246.074 C153.977,246.074 153.981,246.173 153.98,246.368 C153.975,246.592 153.969,246.876 153.962,247.233 C153.961,247.614 153.939,248.084 153.844,248.635 C153.77,249.187 153.698,249.829 153.499,250.527 C153.199,251.945 152.558,253.624 151.53,255.411 C150.492,257.189 148.984,259.052 146.916,260.638 C144.855,262.21 142.241,263.553 139.216,264.105 C136.211,264.637 132.812,264.557 129.566,263.336 C127.933,262.775 126.357,261.923 124.907,260.845 C124.159,260.332 123.503,259.693 122.818,259.075 C122.197,258.392 121.547,257.722 121.012,256.946 C118.743,253.938 117.46,250.062 117.426,246.071 C117.462,242.082 118.745,238.206 121.013,235.2 C121.548,234.423 122.198,233.753 122.819,233.071 C123.504,232.453 124.16,231.813 124.908,231.301 C126.357,230.223 127.933,229.372 129.566,228.81 C132.812,227.59 136.21,227.509 139.215,228.042 C142.24,228.593 144.853,229.936 146.915,231.507 C148.983,233.094 150.491,234.957 151.529,236.735 C152.558,238.521 153.198,240.202 153.499,241.62 C153.698,242.318 153.769,242.959 153.844,243.511 C153.939,244.062 153.961,244.533 153.962,244.914 C153.969,245.27 153.975,245.555 153.98,245.779 C153.981,245.974 153.977,246.074 153.968,246.074" id="Fill-62" fill="#1A282B"></path>
            <path d="M135.827,255.182 C135.683,255.182 135.567,251.104 135.567,246.074 C135.567,241.042 135.683,236.965 135.827,236.965 C135.971,236.965 136.088,241.042 136.088,246.074 C136.088,251.104 135.971,255.182 135.827,255.182" id="Fill-63" fill="#1A282B"></path>
            <path d="M144.936,246.074 C144.936,246.217 140.858,246.333 135.828,246.333 C130.796,246.333 126.719,246.217 126.719,246.074 C126.719,245.929 130.796,245.813 135.828,245.813 C140.858,245.813 144.936,245.929 144.936,246.074" id="Fill-64" fill="#1A282B"></path>
            <path d="M432.313,304.712 C432.192,304.79 419.631,285.362 404.26,261.326 C388.884,237.28 376.521,217.731 376.642,217.653 C376.763,217.576 389.323,236.999 404.699,261.044 C420.069,285.082 432.434,304.635 432.313,304.712" id="Fill-65" fill="#1A282B"></path>
            <path d="M408.619,317.984 C408.619,334.082 421.67,347.133 437.768,347.133 C453.867,347.133 466.917,334.082 466.917,317.984 C466.917,301.885 453.867,288.835 437.768,288.835 C421.67,288.835 408.619,301.885 408.619,317.984" id="Fill-66" fill="#FFFFFE"></path>
            <path d="M408.619,317.984 C408.619,317.984 408.609,317.824 408.616,317.511 C408.627,317.176 408.641,316.715 408.661,316.123 C408.673,315.815 408.685,315.474 408.7,315.099 C408.732,314.724 408.804,314.317 408.864,313.873 C408.989,312.989 409.108,311.961 409.432,310.842 C409.923,308.571 410.959,305.881 412.614,303.024 C414.283,300.179 416.706,297.202 420.02,294.667 C423.324,292.158 427.508,290.016 432.349,289.139 C433.562,288.962 434.789,288.709 436.06,288.699 C436.694,288.674 437.332,288.612 437.974,288.62 C438.618,288.651 439.266,288.683 439.919,288.714 C440.574,288.722 441.225,288.814 441.881,288.924 C442.535,289.031 443.2,289.106 443.858,289.241 C445.156,289.589 446.5,289.851 447.779,290.381 C449.098,290.801 450.34,291.45 451.615,292.059 C452.237,292.395 452.833,292.786 453.448,293.15 C454.074,293.498 454.648,293.931 455.223,294.369 C456.42,295.188 457.467,296.211 458.562,297.199 C459.553,298.291 460.593,299.362 461.447,300.603 C463.201,303.031 464.729,305.732 465.657,308.702 C466.618,311.653 467.135,314.79 467.177,317.98 C467.135,321.17 466.62,324.308 465.659,327.261 C464.732,330.232 463.202,332.933 461.449,335.362 C460.594,336.604 459.555,337.675 458.563,338.767 C457.469,339.755 456.421,340.779 455.224,341.598 C454.649,342.037 454.075,342.469 453.449,342.818 C452.834,343.182 452.237,343.573 451.616,343.909 C450.341,344.518 449.098,345.166 447.779,345.586 C446.5,346.117 445.155,346.378 443.857,346.728 C443.199,346.862 442.534,346.938 441.88,347.044 C441.224,347.154 440.573,347.247 439.918,347.253 C439.265,347.286 438.617,347.317 437.973,347.348 C437.331,347.356 436.692,347.293 436.059,347.27 C434.788,347.258 433.56,347.004 432.347,346.829 C427.506,345.952 423.322,343.809 420.018,341.299 C416.704,338.765 414.282,335.787 412.613,332.942 C410.959,330.085 409.923,327.396 409.432,325.124 C409.108,324.006 408.989,322.979 408.864,322.093 C408.804,321.651 408.732,321.244 408.7,320.869 C408.685,320.494 408.673,320.153 408.661,319.845 C408.641,319.252 408.627,318.791 408.616,318.457 C408.609,318.144 408.619,317.984 408.619,317.984 C408.619,317.984 408.645,318.144 408.67,318.456 C408.693,318.79 408.724,319.248 408.765,319.838 C408.785,320.144 408.805,320.483 408.829,320.856 C408.87,321.229 408.951,321.632 409.017,322.072 C409.158,322.95 409.292,323.968 409.629,325.076 C410.145,327.324 411.201,329.979 412.863,332.793 C414.539,335.595 416.955,338.522 420.242,341.006 C423.518,343.466 427.654,345.559 432.427,346.404 C433.623,346.573 434.832,346.819 436.085,346.825 C436.709,346.846 437.337,346.907 437.97,346.897 C438.603,346.864 439.242,346.831 439.885,346.796 C440.53,346.789 441.171,346.695 441.815,346.585 C442.459,346.478 443.113,346.403 443.76,346.268 C445.037,345.92 446.359,345.662 447.615,345.135 C448.912,344.72 450.132,344.079 451.385,343.477 C451.996,343.146 452.581,342.76 453.185,342.401 C453.801,342.058 454.364,341.63 454.928,341.199 C456.103,340.392 457.131,339.382 458.207,338.411 C459.178,337.334 460.2,336.282 461.038,335.06 C462.758,332.671 464.26,330.017 465.168,327.097 C466.109,324.197 466.615,321.116 466.656,317.98 C466.615,314.845 466.107,311.765 465.166,308.865 C464.258,305.947 462.756,303.293 461.036,300.906 C460.198,299.684 459.177,298.631 458.205,297.555 C457.13,296.584 456.102,295.575 454.927,294.768 C454.363,294.337 453.8,293.91 453.184,293.567 C452.58,293.207 451.995,292.822 451.385,292.491 C450.132,291.889 448.912,291.248 447.615,290.832 C446.359,290.307 445.037,290.047 443.761,289.7 C443.114,289.566 442.46,289.49 441.816,289.383 C441.172,289.273 440.531,289.18 439.885,289.171 C439.243,289.138 438.605,289.104 437.971,289.072 C437.339,289.061 436.71,289.122 436.087,289.143 C434.834,289.149 433.625,289.395 432.428,289.564 C427.655,290.409 423.52,292.5 420.244,294.96 C416.956,297.444 414.541,300.371 412.864,303.173 C411.202,305.988 410.146,308.643 409.629,310.892 C409.292,311.998 409.158,313.017 409.017,313.895 C408.951,314.334 408.87,314.739 408.829,315.112 C408.805,315.484 408.785,315.824 408.765,316.129 C408.724,316.719 408.693,317.178 408.67,317.512 C408.645,317.824 408.619,317.984 408.619,317.984" id="Fill-67" fill="#1A282B"></path>
            <polyline id="Fill-68" fill="#1A282B" points="429.819 307.274 425.829 330.08 437.768 328.437 449.708 330.08 444.906 307.274 429.819 307.274"></polyline>
            <path d="M442.812,307.572 C442.726,307.6 442.487,306.761 441.855,305.55 C441.537,304.951 441.081,304.271 440.421,303.701 C440.081,303.428 439.691,303.192 439.255,303.021 C438.81,302.871 438.329,302.781 437.824,302.773 C436.802,302.764 435.824,302.957 435.102,303.43 C434.374,303.895 433.915,304.574 433.61,305.174 C433.012,306.395 432.813,307.251 432.724,307.223 C432.677,307.212 432.74,306.339 433.278,305.016 C433.553,304.368 434.02,303.587 434.838,303.03 C435.651,302.464 436.741,302.242 437.831,302.251 C438.388,302.261 438.933,302.364 439.434,302.543 C439.928,302.744 440.365,303.021 440.733,303.336 C441.45,303.992 441.896,304.742 442.184,305.387 C442.755,306.689 442.863,307.559 442.812,307.572" id="Fill-69" fill="#1A282B"></path>
            <path d="M321.45,306.665 C321.306,306.665 321.19,286.592 321.19,261.835 C321.19,237.072 321.306,217.002 321.45,217.002 C321.594,217.002 321.711,237.072 321.711,261.835 C321.711,286.592 321.594,306.665 321.45,306.665" id="Fill-70" fill="#1A282B"></path>
            <g id="Group-74" transform="translate(291.000000, 289.000000)">
                <mask id="mask-4" fill="white">
                    <use xlink:href="#path-3"></use>
                </mask>
                <g id="Clip-72"></g>
                <path d="M0.705,29.635 C0.705,45.734 13.756,58.784 29.854,58.784 C45.953,58.784 59.003,45.734 59.003,29.635 C59.003,13.537 45.953,0.486 29.854,0.486 C13.756,0.486 0.705,13.537 0.705,29.635" id="Fill-71" fill="#FFFFFE" mask="url(#mask-4)"></path>
                <path d="M0.705,29.635 C0.705,29.635 0.696,29.475 0.702,29.163 C0.713,28.827 0.728,28.367 0.747,27.774 C0.759,27.466 0.772,27.124 0.786,26.749 C0.818,26.374 0.891,25.967 0.95,25.525 C1.075,24.639 1.194,23.612 1.519,22.493 C2.009,20.222 3.045,17.532 4.7,14.675 C6.369,11.831 8.792,8.853 12.107,6.319 C15.41,3.809 19.594,1.666 24.435,0.79 C25.648,0.614 26.875,0.361 28.147,0.349 C28.78,0.326 29.418,0.262 30.061,0.271 C30.704,0.302 31.352,0.333 32.005,0.366 C32.66,0.373 33.312,0.465 33.967,0.575 C34.621,0.681 35.286,0.757 35.944,0.891 C37.242,1.241 38.587,1.502 39.865,2.033 C41.184,2.453 42.427,3.1 43.702,3.71 C44.323,4.045 44.919,4.436 45.534,4.8 C46.161,5.149 46.734,5.582 47.309,6.02 C48.506,6.838 49.553,7.862 50.648,8.85 C51.639,9.942 52.678,11.013 53.533,12.254 C55.287,14.682 56.816,17.382 57.744,20.352 C58.704,23.304 59.221,26.441 59.263,29.63 C59.222,32.822 58.706,35.959 57.746,38.912 C56.818,41.883 55.289,44.584 53.535,47.013 C52.68,48.254 51.641,49.326 50.65,50.418 C49.554,51.407 48.507,52.43 47.311,53.249 C46.735,53.687 46.162,54.121 45.535,54.469 C44.92,54.832 44.324,55.223 43.702,55.559 C42.427,56.169 41.184,56.817 39.865,57.238 C38.586,57.768 37.242,58.03 35.943,58.378 C35.286,58.513 34.62,58.588 33.966,58.696 C33.311,58.805 32.659,58.897 32.004,58.905 C31.351,58.936 30.703,58.968 30.059,58.999 C29.417,59.007 28.778,58.945 28.145,58.92 C26.874,58.909 25.647,58.656 24.433,58.479 C19.593,57.602 15.408,55.46 12.105,52.95 C8.79,50.415 6.368,47.438 4.699,44.593 C3.045,41.736 2.009,39.046 1.518,36.776 C1.194,35.657 1.075,34.629 0.95,33.745 C0.891,33.301 0.818,32.895 0.786,32.52 C0.772,32.145 0.759,31.803 0.747,31.496 C0.728,30.904 0.713,30.443 0.702,30.107 C0.696,29.794 0.705,29.635 0.705,29.635 C0.705,29.635 0.731,29.794 0.756,30.107 C0.779,30.44 0.811,30.899 0.851,31.489 C0.871,31.795 0.892,32.134 0.915,32.507 C0.956,32.879 1.036,33.284 1.103,33.723 C1.244,34.601 1.378,35.62 1.715,36.726 C2.232,38.974 3.288,41.629 4.949,44.444 C6.625,47.247 9.041,50.173 12.328,52.657 C15.605,55.117 19.74,57.209 24.513,58.054 C25.709,58.223 26.918,58.47 28.171,58.476 C28.795,58.497 29.424,58.558 30.056,58.547 C30.69,58.514 31.328,58.481 31.97,58.448 C32.616,58.439 33.258,58.346 33.901,58.236 C34.545,58.129 35.2,58.053 35.846,57.919 C37.123,57.571 38.445,57.312 39.702,56.787 C40.999,56.371 42.218,55.729 43.471,55.128 C44.082,54.796 44.667,54.411 45.271,54.052 C45.886,53.708 46.45,53.281 47.015,52.849 C48.19,52.042 49.218,51.034 50.293,50.062 C51.265,48.986 52.286,47.932 53.125,46.711 C54.844,44.322 56.345,41.667 57.254,38.748 C58.195,35.847 58.701,32.766 58.743,29.63 C58.701,26.496 58.194,23.415 57.252,20.516 C56.344,17.598 54.842,14.944 53.122,12.556 C52.285,11.335 51.263,10.283 50.292,9.207 C49.216,8.235 48.188,7.226 47.013,6.419 C46.449,5.988 45.885,5.56 45.27,5.217 C44.666,4.859 44.081,4.473 43.47,4.142 C42.218,3.54 40.998,2.899 39.702,2.484 C38.445,1.957 37.123,1.699 35.847,1.351 C35.2,1.216 34.546,1.141 33.902,1.034 C33.259,0.924 32.617,0.831 31.971,0.822 C31.329,0.789 30.691,0.755 30.058,0.722 C29.425,0.712 28.796,0.773 28.173,0.793 C26.92,0.8 25.711,1.046 24.514,1.215 C19.742,2.059 15.607,4.152 12.33,6.612 C9.042,9.095 6.627,12.022 4.95,14.825 C3.288,17.638 2.232,20.294 1.716,22.542 C1.378,23.65 1.244,24.668 1.103,25.546 C1.037,25.986 0.956,26.39 0.915,26.762 C0.892,27.135 0.871,27.474 0.851,27.781 C0.811,28.371 0.779,28.83 0.756,29.164 C0.731,29.475 0.705,29.635 0.705,29.635" id="Fill-73" fill="#1A282B" mask="url(#mask-4)"></path>
            </g>
            <polyline id="Fill-75" fill="#1A282B" points="320.854 305.58 308.209 317.067 308.209 331.635 318.056 331.635 318.056 322.906 324.323 322.906 324.323 331.635 333.5 331.635 333.5 317.067 320.854 305.58"></polyline>
            <path d="M208.613,305.729 C208.492,305.652 221.043,285.808 236.643,261.413 C252.248,237.008 264.993,217.294 265.114,217.373 C265.235,217.45 252.687,237.29 237.081,261.693 C221.482,286.088 208.734,305.807 208.613,305.729" id="Fill-76" fill="#1A282B"></path>
            <path d="M233.041,318.265 C233.041,334.364 219.991,347.415 203.892,347.415 C187.794,347.415 174.743,334.364 174.743,318.265 C174.743,302.166 187.794,289.117 203.892,289.117 C219.991,289.117 233.041,302.166 233.041,318.265" id="Fill-77" fill="#FFFFFE"></path>
            <path d="M233.041,318.265 C233.041,318.265 233.015,318.105 232.991,317.793 C232.968,317.459 232.936,317 232.895,316.411 C232.876,316.105 232.855,315.765 232.831,315.393 C232.791,315.02 232.71,314.616 232.643,314.176 C232.503,313.298 232.369,312.28 232.031,311.172 C231.515,308.924 230.459,306.269 228.796,303.455 C227.12,300.652 224.704,297.725 221.417,295.242 C218.14,292.782 214.005,290.69 209.232,289.845 C208.036,289.676 206.827,289.43 205.574,289.424 C204.95,289.403 204.322,289.342 203.689,289.353 C203.055,289.385 202.418,289.418 201.775,289.453 C201.13,289.461 200.489,289.554 199.844,289.665 C199.201,289.771 198.547,289.847 197.9,289.981 C196.623,290.329 195.301,290.588 194.045,291.114 C192.748,291.53 191.529,292.17 190.276,292.772 C189.666,293.103 189.081,293.489 188.476,293.847 C187.861,294.191 187.298,294.618 186.733,295.049 C185.558,295.856 184.531,296.866 183.455,297.836 C182.484,298.913 181.462,299.965 180.624,301.187 C178.905,303.575 177.404,306.228 176.495,309.146 C175.553,312.046 175.046,315.126 175.004,318.261 C175.046,321.396 175.551,324.478 176.493,327.379 C177.401,330.298 178.903,332.953 180.622,335.341 C181.46,336.563 182.482,337.616 183.454,338.692 C184.53,339.664 185.557,340.673 186.732,341.48 C187.297,341.912 187.86,342.339 188.476,342.682 C189.08,343.041 189.665,343.427 190.275,343.758 C191.529,344.36 192.748,345.001 194.045,345.416 C195.302,345.942 196.624,346.202 197.9,346.549 C198.547,346.684 199.202,346.759 199.845,346.867 C200.489,346.976 201.131,347.07 201.776,347.078 C202.419,347.112 203.057,347.145 203.69,347.178 C204.323,347.188 204.952,347.127 205.576,347.106 C206.829,347.1 208.038,346.854 209.234,346.685 C214.007,345.84 218.142,343.748 221.419,341.288 C224.706,338.803 227.121,335.876 228.797,333.075 C230.459,330.26 231.515,327.605 232.031,325.357 C232.369,324.249 232.503,323.231 232.643,322.353 C232.71,321.914 232.791,321.51 232.831,321.137 C232.855,320.764 232.876,320.425 232.895,320.12 C232.936,319.53 232.968,319.071 232.991,318.737 C233.015,318.425 233.041,318.265 233.041,318.265 C233.041,318.265 233.051,318.425 233.044,318.738 C233.033,319.073 233.019,319.534 233,320.125 C232.988,320.434 232.975,320.775 232.961,321.15 C232.928,321.525 232.856,321.932 232.797,322.374 C232.672,323.26 232.552,324.288 232.228,325.406 C231.738,327.677 230.702,330.367 229.047,333.223 C227.379,336.068 224.957,339.046 221.642,341.58 C218.338,344.09 214.155,346.233 209.313,347.11 C208.1,347.286 206.873,347.54 205.601,347.551 C204.968,347.575 204.33,347.637 203.687,347.629 C203.044,347.598 202.396,347.567 201.743,347.535 C201.087,347.528 200.436,347.435 199.781,347.326 C199.127,347.219 198.461,347.143 197.803,347.009 C196.505,346.66 195.16,346.398 193.882,345.868 C192.562,345.448 191.32,344.799 190.045,344.19 C189.423,343.854 188.827,343.463 188.212,343.099 C187.585,342.75 187.011,342.318 186.436,341.879 C185.239,341.06 184.192,340.037 183.097,339.048 C182.105,337.957 181.066,336.884 180.211,335.643 C178.458,333.214 176.928,330.513 176.001,327.542 C175.04,324.589 174.525,321.452 174.484,318.261 C174.525,315.071 175.042,311.934 176.003,308.983 C176.931,306.013 178.46,303.312 180.214,300.884 C181.068,299.643 182.107,298.573 183.098,297.48 C184.194,296.493 185.241,295.469 186.437,294.65 C187.012,294.212 187.586,293.779 188.213,293.43 C188.828,293.067 189.424,292.676 190.045,292.34 C191.321,291.731 192.562,291.082 193.882,290.663 C195.16,290.132 196.505,289.871 197.802,289.522 C198.461,289.387 199.126,289.312 199.78,289.205 C200.435,289.095 201.086,289.003 201.742,288.996 C202.394,288.963 203.043,288.932 203.686,288.901 C204.329,288.893 204.967,288.956 205.6,288.98 C206.871,288.991 208.098,289.244 209.312,289.42 C214.153,290.296 218.336,292.439 221.64,294.949 C224.955,297.483 227.377,300.46 229.046,303.305 C230.701,306.163 231.738,308.852 232.228,311.123 C232.552,312.243 232.672,313.27 232.797,314.155 C232.856,314.598 232.928,315.004 232.961,315.38 C232.975,315.755 232.988,316.096 233,316.404 C233.019,316.997 233.033,317.457 233.044,317.792 C233.051,318.105 233.041,318.265 233.041,318.265" id="Fill-78" fill="#1A282B"></path>
            <polygon id="Fill-79" fill="#1A282B" points="192.278 333.44 215.164 333.44 215.164 303.09 192.278 303.09"></polygon>
            <path d="M204.836,307.938 C204.836,308.082 203.154,308.199 201.078,308.199 C199.003,308.199 197.321,308.082 197.321,307.938 C197.321,307.794 199.003,307.678 201.078,307.678 C203.154,307.678 204.836,307.794 204.836,307.938" id="Fill-80" fill="#365158"></path>
            <path d="M211.462,312.207 C211.462,312.351 208.096,312.467 203.946,312.467 C199.795,312.467 196.43,312.351 196.43,312.207 C196.43,312.063 199.795,311.947 203.946,311.947 C208.096,311.947 211.462,312.063 211.462,312.207" id="Fill-81" fill="#365158"></path>
            <path d="M211.462,314.801 C211.462,314.946 208.096,315.062 203.946,315.062 C199.795,315.062 196.43,314.946 196.43,314.801 C196.43,314.658 199.795,314.541 203.946,314.541 C208.096,314.541 211.462,314.658 211.462,314.801" id="Fill-82" fill="#365158"></path>
            <path d="M211.462,317.397 C211.462,317.54 208.096,317.657 203.946,317.657 C199.795,317.657 196.43,317.54 196.43,317.397 C196.43,317.252 199.795,317.136 203.946,317.136 C208.096,317.136 211.462,317.252 211.462,317.397" id="Fill-83" fill="#365158"></path>
            <path d="M211.462,319.992 C211.462,320.135 208.096,320.251 203.946,320.251 C199.795,320.251 196.43,320.135 196.43,319.992 C196.43,319.848 199.795,319.731 203.946,319.731 C208.096,319.731 211.462,319.848 211.462,319.992" id="Fill-84" fill="#365158"></path>
            <path d="M211.462,322.586 C211.462,322.73 208.096,322.847 203.946,322.847 C199.795,322.847 196.43,322.73 196.43,322.586 C196.43,322.443 199.795,322.326 203.946,322.326 C208.096,322.326 211.462,322.443 211.462,322.586" id="Fill-85" fill="#365158"></path>
            <path d="M211.462,325.181 C211.462,325.325 208.096,325.442 203.946,325.442 C199.795,325.442 196.43,325.325 196.43,325.181 C196.43,325.038 199.795,324.921 203.946,324.921 C208.096,324.921 211.462,325.038 211.462,325.181" id="Fill-86" fill="#365158"></path>
            <path d="M211.462,327.776 C211.462,327.92 208.096,328.037 203.946,328.037 C199.795,328.037 196.43,327.92 196.43,327.776 C196.43,327.632 199.795,327.516 203.946,327.516 C208.096,327.516 211.462,327.632 211.462,327.776" id="Fill-87" fill="#365158"></path>
            <path d="M455.542,218.117 L197.47,218.117 C184.331,218.117 173.68,207.465 173.68,194.326 L173.68,191.717 C173.68,178.579 184.331,167.927 197.47,167.927 L455.542,167.927 C468.681,167.927 479.333,178.579 479.333,191.717 L479.333,194.326 C479.333,207.465 468.681,218.117 455.542,218.117" id="Fill-88" fill="#FFFFFE"></path>
            <path d="M411.613,167.472 L411.613,218.117 L454.316,218.117 C468.302,218.117 479.638,206.78 479.638,192.794 C479.638,178.809 468.302,167.472 454.316,167.472 L411.613,167.472" id="Fill-89" fill="#DE4D59"></path>
            <path d="M451.352,191.388 C451.283,191.393 451.343,190.434 450.92,188.802 C450.503,187.201 449.427,184.85 447.018,183.036 C445.825,182.15 444.324,181.398 442.594,181.098 C440.878,180.81 438.941,180.868 437.101,181.572 C436.175,181.896 435.282,182.383 434.461,182.999 C433.631,183.603 432.878,184.352 432.258,185.219 C430.974,186.928 430.252,189.123 430.23,191.386 C430.251,193.65 430.973,195.845 432.257,197.555 C432.878,198.423 433.631,199.172 434.461,199.776 C435.281,200.392 436.175,200.88 437.101,201.204 C438.942,201.908 440.878,201.966 442.595,201.677 C444.324,201.377 445.826,200.625 447.019,199.739 C449.428,197.924 450.503,195.574 450.92,193.973 C451.343,192.341 451.283,191.382 451.352,191.388 C451.352,191.388 451.485,192.343 451.117,194.023 C450.752,195.667 449.706,198.115 447.242,200.032 C446.022,200.969 444.471,201.77 442.675,202.102 C440.89,202.422 438.869,202.377 436.937,201.655 C435.966,201.322 435.027,200.817 434.165,200.176 C433.293,199.547 432.5,198.765 431.845,197.858 C430.495,196.069 429.729,193.761 429.71,191.386 C429.73,189.012 430.495,186.705 431.846,184.917 C432.501,184.009 433.293,183.228 434.165,182.599 C435.028,181.959 435.967,181.454 436.937,181.121 C438.869,180.398 440.889,180.353 442.675,180.674 C444.471,181.005 446.021,181.806 447.242,182.743 C449.706,184.661 450.752,187.107 451.117,188.752 C451.485,190.433 451.352,191.388 451.352,191.388" id="Fill-90" fill="#FFFFFE"></path>
            <path d="M461.282,206.344 C461.198,206.461 458.439,204.629 455.121,202.253 C451.801,199.875 449.178,197.855 449.262,197.738 C449.345,197.621 452.104,199.453 455.424,201.83 C458.743,204.206 461.366,206.227 461.282,206.344" id="Fill-91" fill="#FFFFFE"></path>
            <polygon id="Fill-92" fill="#ECECE8" points="202.744 199.063 389.593 199.063 389.593 188.321 202.744 188.321"></polygon>
            <path d="M455.542,218.117 C455.542,218.117 456.128,218.069 457.269,218.002 C457.844,217.998 458.545,217.873 459.381,217.739 C460.225,217.647 461.17,217.367 462.249,217.087 C464.369,216.427 466.954,215.354 469.574,213.411 C469.899,213.165 470.231,212.916 470.569,212.663 C470.889,212.388 471.201,212.09 471.526,211.797 C472.198,211.231 472.797,210.55 473.423,209.852 C474.071,209.173 474.586,208.345 475.199,207.561 C475.457,207.134 475.718,206.701 475.984,206.262 L476.384,205.597 L476.723,204.887 C477.715,203.018 478.368,200.859 478.82,198.566 C478.907,197.987 478.996,197.4 479.086,196.807 C479.117,196.207 479.148,195.601 479.18,194.988 C479.234,193.763 479.221,192.489 479.182,191.207 C479.108,186.084 477.178,180.482 473.175,176.002 C469.224,171.527 463.094,168.307 456.273,168.13 C451.882,168.086 447.321,168.095 442.606,168.105 C439.994,168.11 437.335,168.115 434.632,168.111 C373.93,168.131 290.089,168.158 197.486,168.187 C191.749,168.194 186.102,170.357 181.881,174.126 C177.642,177.862 174.807,183.135 174.156,188.684 C174.018,189.369 174.036,190.071 173.987,190.764 C173.939,191.457 173.93,192.158 173.938,192.862 C173.921,194.272 173.981,195.654 174.105,197.031 C174.386,199.788 175.241,202.459 176.471,204.908 C178.949,209.806 183.136,213.772 188.102,215.913 C190.585,216.978 193.235,217.602 195.902,217.784 C197.232,217.878 198.585,217.867 199.931,217.864 C201.278,217.864 202.62,217.864 203.96,217.865 C209.319,217.866 214.626,217.867 219.878,217.868 C230.382,217.871 240.664,217.873 250.696,217.876 C290.825,217.898 326.962,217.916 357.311,217.932 C387.654,217.967 412.21,217.996 429.187,218.015 C437.668,218.037 444.254,218.053 448.728,218.064 C450.958,218.076 452.658,218.084 453.81,218.09 C454.956,218.099 455.542,218.117 455.542,218.117 C455.542,218.117 454.956,218.134 453.81,218.143 C452.658,218.149 450.958,218.158 448.728,218.169 C444.254,218.18 437.668,218.197 429.187,218.218 C412.21,218.238 387.654,218.266 357.311,218.3 C326.962,218.317 290.825,218.335 250.696,218.356 C240.664,218.359 230.382,218.362 219.878,218.366 C214.626,218.367 209.319,218.368 203.96,218.369 C202.62,218.369 201.278,218.369 199.931,218.369 C198.586,218.373 197.239,218.386 195.869,218.29 C193.144,218.106 190.436,217.468 187.899,216.38 C182.824,214.195 178.546,210.145 176.012,205.14 C174.754,202.638 173.88,199.907 173.592,197.089 C173.463,195.684 173.404,194.258 173.421,192.862 C173.413,192.161 173.421,191.457 173.47,190.744 C173.519,190.035 173.502,189.319 173.642,188.618 C174.308,182.947 177.205,177.555 181.536,173.737 C185.848,169.885 191.624,167.672 197.486,167.667 C290.089,167.697 373.93,167.724 434.632,167.743 C437.312,167.751 439.947,167.75 442.535,167.749 C447.274,167.748 451.857,167.746 456.283,167.799 C463.199,167.992 469.404,171.27 473.391,175.809 C477.434,180.352 479.37,186.025 479.43,191.202 C479.466,192.497 479.475,193.753 479.418,194.995 C479.384,195.614 479.349,196.226 479.316,196.83 C479.223,197.43 479.133,198.022 479.042,198.606 C478.579,200.919 477.912,203.096 476.905,204.978 C476.789,205.218 476.674,205.455 476.559,205.692 L476.154,206.361 C475.884,206.803 475.619,207.239 475.357,207.667 C474.736,208.457 474.214,209.289 473.557,209.969 C472.925,210.67 472.318,211.353 471.639,211.92 C471.31,212.214 470.995,212.512 470.671,212.788 C470.33,213.041 469.995,213.29 469.666,213.535 C467.018,215.478 464.413,216.541 462.278,217.188 C461.192,217.46 460.243,217.734 459.394,217.817 C458.553,217.943 457.849,218.06 457.273,218.056 C456.128,218.105 455.542,218.117 455.542,218.117" id="Fill-93" fill="#1A282B"></path>
            <path d="M323.115,186.914 C322.206,185.853 322.114,184.956 324.16,184.773 C328.673,184.367 331.996,182.396 332.52,181.256 C333.045,180.116 331.615,179.001 330.391,179.687 C329.403,180.241 327.467,180.668 325.998,180.931 C324.787,181.148 323.549,181.171 322.337,180.98 C321.286,180.815 320.363,180.639 319.536,180.463 C319.536,180.463 314.761,179.434 312.699,177.825 L302.601,188.618 L307.338,193.97 C307.338,193.97 309.599,197.352 313.663,196.951 C317.726,196.55 323.191,193.633 323.191,193.633 C323.929,192.5 330.472,196.534 332.579,198.046 C334.661,199.542 336.244,199.178 336.164,197.724 C336.11,196.732 329.771,191.948 327.653,190.499 C326.495,189.707 324.211,188.192 323.115,186.914" id="Fill-94" fill="#F2B499"></path>
            <path d="M317.179,196.29 C317.19,196.352 316.888,196.481 316.366,196.467 C315.849,196.457 315.126,196.252 314.486,195.77 C313.847,195.286 313.453,194.645 313.302,194.15 C313.147,193.652 313.189,193.326 313.25,193.32 C313.394,193.287 313.641,194.507 314.8,195.355 C315.93,196.238 317.172,196.143 317.179,196.29" id="Fill-95" fill="#EB916B"></path>
            <path d="M321.18,194.714 C321.188,194.778 320.893,194.886 320.395,194.855 C319.902,194.827 319.217,194.614 318.611,194.145 C318.007,193.673 317.632,193.061 317.483,192.589 C317.33,192.115 317.364,191.802 317.426,191.794 C317.571,191.759 317.839,192.911 318.93,193.734 C319.997,194.589 321.178,194.566 321.18,194.714" id="Fill-96" fill="#EB916B"></path>
            <path d="M332.068,82.456 C332.49,91.318 343.299,103.456 351.338,105.42 C355.564,106.453 360.427,105.967 363.775,108.806 C369.517,113.676 366.159,123.769 370.032,130.302 C372.414,134.317 377.143,136.287 379.822,140.1 C384.273,146.438 381.286,156.016 375.212,160.736 C369.136,165.456 361.046,166.357 353.432,166.161 C336.686,165.727 319.537,160.406 307.432,148.535 C301.746,142.959 279.496,125.742 287.255,84.937 L332.068,82.456" id="Fill-97" fill="#1A282B"></path>
            <path d="M392.512,145.861 L328.842,126.958 C323.564,124.717 319.568,124.168 319.568,124.168 L298.072,124.311 C295.153,124.311 292.405,124.939 289.827,126.036 L231.871,145.286 C227.583,146.643 224.62,151.042 224.62,156.052 C224.62,162.229 229.072,167.236 234.564,167.236 L261.327,167.236 C261.25,167.488 261.209,167.628 261.209,167.628 L354.294,167.977 L354.293,167.942 L389.82,168.021 C395.312,168.021 399.764,162.966 399.764,156.73 C399.764,151.672 396.802,147.231 392.512,145.861" id="Fill-98" fill="#DE4D59"></path>
            <path d="M379.753,152.744 C379.75,152.762 379.551,152.751 379.175,152.714 C378.743,152.666 378.2,152.604 377.535,152.528 C376.114,152.348 374.053,152.119 371.506,151.873 C366.411,151.377 359.345,150.938 351.534,151.035 C343.722,151.142 336.67,151.767 331.589,152.396 C329.049,152.709 326.995,152.991 325.579,153.209 C324.916,153.302 324.375,153.377 323.945,153.437 C323.57,153.484 323.372,153.5 323.368,153.482 C323.365,153.465 323.557,153.414 323.926,153.334 C324.353,153.249 324.888,153.141 325.546,153.009 C326.953,152.73 329.001,152.391 331.541,152.031 C336.62,151.307 343.691,150.622 351.528,150.514 C359.362,150.417 366.448,150.916 371.544,151.507 C374.093,151.8 376.149,152.085 377.563,152.328 C378.223,152.442 378.762,152.536 379.19,152.61 C379.561,152.681 379.755,152.726 379.753,152.744" id="Fill-99" fill="#1A282B"></path>
            <path d="M364.562,137.563 L364.495,137.543 C364.53,137.511 364.564,137.48 364.595,137.45 C364.725,137.333 364.798,137.273 364.81,137.273 C364.811,137.273 364.811,137.274 364.811,137.274 C364.818,137.28 364.758,137.352 364.634,137.488 C364.611,137.512 364.587,137.537 364.562,137.563" id="Fill-100" fill="#A1A7A6"></path>
            <path d="M295.384,146.952 C289.608,146.952 284.495,144.976 280.903,142.407 C278.901,140.979 277.381,139.362 275.984,138.039 C274.597,136.7 273.322,135.636 272.174,134.924 C269.855,133.49 268.236,133.558 268.272,133.462 C268.272,133.462 268.275,133.462 268.282,133.462 C268.344,133.462 268.717,133.467 269.36,133.591 C270.068,133.717 271.096,134.056 272.279,134.75 C273.462,135.446 274.773,136.503 276.183,137.827 C277.605,139.136 279.137,140.725 281.115,142.106 C284.65,144.582 289.647,146.481 295.27,146.481 C295.892,146.481 296.522,146.457 297.158,146.409 C298.743,146.282 300.365,146.037 301.963,145.562 C302.773,145.365 303.553,145.043 304.353,144.759 C305.125,144.406 305.92,144.083 306.677,143.659 C309.738,142.025 312.586,139.713 316.023,138.16 C317.912,137.255 319.972,136.84 322,136.84 C323.133,136.84 324.257,136.969 325.336,137.215 C325.474,137.429 325.615,137.64 325.76,137.849 C324.548,137.527 323.282,137.356 322.007,137.356 C320.054,137.356 318.077,137.758 316.235,138.635 C312.884,140.145 310.033,142.449 306.919,144.108 C306.148,144.538 305.331,144.869 304.542,145.227 C303.723,145.516 302.925,145.841 302.097,146.041 C300.465,146.52 298.809,146.765 297.193,146.888 C296.584,146.931 295.98,146.952 295.384,146.952 M348.502,146.669 C347.059,146.669 345.553,146.461 344.052,146.053 C341.556,145.384 339.093,144.188 336.59,142.848 C336.802,142.786 337.012,142.719 337.222,142.649 C339.568,143.904 341.862,145.004 344.167,145.637 C345.676,146.057 347.182,146.27 348.621,146.271 C349.773,146.271 350.882,146.134 351.915,145.855 C352.239,145.775 352.556,145.684 352.865,145.586 C352.995,145.668 353.126,145.749 353.258,145.83 C352.855,145.972 352.438,146.1 352.008,146.212 C350.915,146.518 349.732,146.669 348.502,146.669 M364.547,137.579 L364.479,137.558 C364.485,137.553 364.49,137.548 364.495,137.543 L364.562,137.563 C364.557,137.568 364.552,137.574 364.547,137.579" id="Fill-101" fill="#F0B1B4"></path>
            <polyline id="Fill-102" fill="#141D1F" points="300.246 167.794 300.201 167.774 301.275 167.778 300.246 167.794"></polyline>
            <polyline id="Fill-103" fill="#C53C46" points="301.275 167.778 300.201 167.774 299.786 167.591 271.713 153.717 306.118 160.203 301.47 167.775 301.275 167.778"></polyline>
            <path d="M340.246,167.138 C340.245,167.138 340.245,167.138 340.245,167.138 C340.228,167.131 340.3,166.932 340.454,166.558 C340.539,166.355 340.635,166.127 340.744,165.868 C340.889,165.598 341.05,165.298 341.228,164.967 C341.992,163.644 343.297,161.769 345.488,160.069 C347.632,158.347 350.682,156.794 354.334,156.329 C354.999,156.246 355.684,156.204 356.38,156.204 C357.585,156.204 358.823,156.331 360.054,156.595 C362.006,156.981 363.956,157.61 365.958,158.174 C367.956,158.744 369.936,159.19 371.874,159.27 C372.058,159.277 372.241,159.28 372.424,159.28 C374.162,159.28 375.839,158.966 377.361,158.441 C380.755,157.291 383.286,155.065 384.816,152.855 C386.372,150.631 387.034,148.481 387.344,147.004 C387.648,145.516 387.647,144.663 387.7,144.663 C387.719,144.663 387.724,144.875 387.72,145.28 C387.71,145.684 387.667,146.281 387.544,147.041 C387.29,148.55 386.674,150.758 385.119,153.063 C383.593,155.355 381.009,157.685 377.519,158.894 C375.938,159.452 374.187,159.788 372.368,159.788 C372.197,159.788 372.027,159.785 371.855,159.779 C369.853,159.704 367.827,159.248 365.817,158.675 C363.802,158.107 361.866,157.48 359.954,157.095 C358.713,156.825 357.482,156.697 356.285,156.697 C355.642,156.697 355.01,156.734 354.391,156.806 C350.841,157.231 347.842,158.708 345.714,160.36 C343.538,161.989 342.21,163.795 341.402,165.071 C341.211,165.39 341.038,165.678 340.882,165.938 C340.758,166.187 340.647,166.407 340.55,166.601 C340.369,166.953 340.265,167.138 340.246,167.138" id="Fill-104" fill="#F0B1B4"></path>
            <path d="M231.925,165.945 C231.925,165.945 304.684,198.049 304.309,197.321 C303.934,196.592 315.861,175.536 315.861,175.536 L256.911,146.401 L231.925,165.945" id="Fill-105" fill="#DE4D59"></path>
            <path d="M265.323,150.559 C265.339,150.526 265.872,150.752 266.823,151.187 C267.851,151.671 269.199,152.307 270.827,153.073 C274.198,154.687 278.839,156.948 283.95,159.474 C289.064,162.001 293.68,164.315 297.01,166.014 C298.609,166.842 299.933,167.527 300.943,168.05 C301.866,168.541 302.37,168.828 302.354,168.86 C302.339,168.893 301.806,168.668 300.856,168.233 C299.829,167.749 298.481,167.114 296.853,166.347 C293.482,164.733 288.84,162.472 283.726,159.944 C278.614,157.417 273.997,155.103 270.667,153.405 C269.068,152.577 267.744,151.892 266.735,151.369 C265.811,150.878 265.308,150.591 265.323,150.559" id="Fill-106" fill="#1A282B"></path>
            <path d="M231.122,165.792 C231.121,165.792 231.119,165.792 231.118,165.791 C231.118,165.791 231.364,165.002 232.281,163.852 C233.18,162.701 234.9,161.302 237.398,160.453 C238.106,160.214 238.871,160.014 239.684,159.876 L238.997,160.414 C238.479,160.521 237.984,160.653 237.514,160.802 C235.067,161.585 233.362,162.897 232.436,163.983 C231.51,165.045 231.187,165.792 231.122,165.792" id="Fill-107" fill="#F0B1B4"></path>
            <path d="M269.676,168.452 C268.909,168.452 268.121,168.397 267.324,168.29 C263.864,167.846 260.296,166.404 256.713,164.73 C253.129,163.052 249.713,161.435 246.394,160.66 C244.876,160.293 243.391,160.103 241.995,160.103 C241.872,160.103 241.75,160.104 241.628,160.107 C240.704,160.131 239.822,160.242 238.997,160.414 L239.684,159.876 C240.302,159.771 240.946,159.701 241.613,159.675 C241.8,159.668 241.988,159.665 242.177,159.665 C243.561,159.665 245.02,159.846 246.503,160.192 C249.895,160.959 253.355,162.583 256.932,164.257 C260.505,165.927 264.016,167.356 267.388,167.814 C268.22,167.933 269.04,167.993 269.835,167.993 C270.642,167.993 271.425,167.931 272.17,167.807 C273.652,167.559 274.98,167.061 276.111,166.469 C278.38,165.269 279.789,163.627 280.445,162.362 C281.115,161.108 281.236,160.297 281.299,160.297 C281.3,160.297 281.301,160.298 281.302,160.298 C281.302,160.298 281.262,161.126 280.625,162.456 C280.009,163.78 278.6,165.516 276.285,166.793 C275.133,167.424 273.772,167.957 272.245,168.231 C271.425,168.379 270.564,168.452 269.676,168.452" id="Fill-108" fill="#F0B1B4"></path>
            <path d="M285.28,189.933 C285.275,189.933 285.272,189.932 285.27,189.929 C285.253,189.91 285.396,189.76 285.679,189.497 C285.73,189.519 285.783,189.542 285.834,189.564 C285.516,189.799 285.329,189.933 285.28,189.933" id="Fill-109" fill="#FAF9F7"></path>
            <path d="M312.077,182.324 C312.071,182.324 312.065,182.324 312.058,182.324 C312.07,182.302 312.082,182.281 312.095,182.259 C312.161,182.278 312.194,182.293 312.192,182.303 C312.19,182.318 312.151,182.324 312.077,182.324" id="Fill-110" fill="#FBDFD1"></path>
            <path d="M285.834,189.564 C285.783,189.542 285.73,189.519 285.679,189.497 C285.792,189.393 285.928,189.27 286.084,189.13 C286.623,188.633 287.462,187.977 288.543,187.232 C289.62,186.478 290.975,185.686 292.535,184.916 C294.107,184.171 295.89,183.462 297.822,182.905 C299.758,182.367 301.648,182.035 303.377,181.845 C304.533,181.737 305.617,181.684 306.6,181.684 C307.09,181.684 307.554,181.697 307.991,181.723 C309.302,181.791 310.36,181.91 311.081,182.05 C311.59,182.142 311.937,182.213 312.095,182.259 C312.082,182.281 312.07,182.302 312.058,182.324 C311.623,182.319 310.15,182.126 307.979,182.091 C307.796,182.087 307.609,182.085 307.416,182.085 C306.242,182.085 304.894,182.162 303.429,182.323 C301.728,182.536 299.871,182.876 297.964,183.406 C296.062,183.954 294.302,184.639 292.741,185.35 C291.192,186.085 289.836,186.833 288.745,187.539 C287.388,188.406 286.402,189.145 285.834,189.564" id="Fill-111" fill="#F0B1B4"></path>
            <path d="M363.238,137.17 L328.842,126.958 C325.489,125.534 322.654,124.794 321.031,124.443 C321.07,124.306 321.114,124.169 321.163,124.033 L363.238,137.17" id="Fill-112" fill="#141D1F"></path>
            <path d="M366.926,150.499 C364.547,150.499 362.147,149.995 359.905,149.175 C357.569,148.32 355.377,147.14 353.258,145.83 C355.09,145.186 356.64,144.266 357.952,143.378 C359.551,142.275 360.815,141.18 361.822,140.262 C362.829,139.344 363.57,138.59 364.073,138.079 C364.259,137.883 364.416,137.717 364.547,137.579 L379.088,142.119 C378.192,145.867 374.931,148.776 371.242,149.887 C369.839,150.309 368.387,150.499 366.926,150.499 M352.865,145.586 C351.836,144.94 350.824,144.266 349.819,143.588 C347.977,142.343 346.027,141.032 343.808,140.904 C343.686,140.897 343.564,140.894 343.442,140.894 C341.298,140.894 339.29,141.954 337.222,142.649 C336.785,142.415 336.346,142.175 335.904,141.932 C333.08,140.419 330.152,138.652 326.755,137.614 C326.292,137.458 325.819,137.325 325.336,137.215 C324.689,136.217 324.101,135.175 323.519,134.139 C321.837,131.15 320.106,127.691 321.031,124.443 C322.654,124.794 325.489,125.534 328.842,126.958 L363.238,137.17 L364.479,137.558 C364.345,137.683 364.186,137.831 363.999,138.005 C363.473,138.491 362.711,139.22 361.687,140.111 C360.664,141.001 359.386,142.068 357.789,143.137 C356.413,144.04 354.783,144.973 352.865,145.586 M334.132,143.239 C331.728,143.239 329.444,141.969 327.738,140.263 C327,139.524 326.353,138.708 325.76,137.849 C326.045,137.925 326.327,138.009 326.605,138.102 C329.923,139.105 332.843,140.85 335.675,142.353 C335.981,142.52 336.286,142.685 336.59,142.848 C335.858,143.061 335.115,143.211 334.354,143.236 C334.28,143.238 334.206,143.239 334.132,143.239" id="Fill-113" fill="#C53C46"></path>
            <path d="M353.258,145.83 C353.126,145.749 352.995,145.668 352.865,145.586 C354.783,144.973 356.413,144.04 357.789,143.137 C359.386,142.068 360.664,141.001 361.687,140.111 C362.711,139.22 363.473,138.491 363.999,138.005 C364.186,137.831 364.345,137.683 364.479,137.558 L364.547,137.579 C364.416,137.717 364.259,137.883 364.073,138.079 C363.57,138.59 362.829,139.344 361.822,140.262 C360.815,141.18 359.551,142.275 357.952,143.378 C356.64,144.266 355.09,145.186 353.258,145.83 M336.59,142.848 C336.286,142.685 335.981,142.52 335.675,142.353 C332.843,140.85 329.923,139.105 326.605,138.102 C326.327,138.009 326.045,137.925 325.76,137.849 C325.615,137.64 325.474,137.429 325.336,137.215 C325.819,137.325 326.292,137.458 326.755,137.614 C330.152,138.652 333.08,140.419 335.904,141.932 C336.346,142.175 336.785,142.415 337.222,142.649 C337.012,142.719 336.802,142.786 336.59,142.848" id="Fill-114" fill="#CA8E8E"></path>
            <path d="M321.437,123.104 C321.605,119.187 321.816,115.643 321.816,115.643 C321.816,115.643 330.57,114.538 330.947,105.603 C331.325,96.667 330.435,76.092 330.435,76.092 L314.323,68.355 L296.988,82.32 L299.706,123.358 C300.098,129.27 305.148,133.783 311.068,133.509 C316.696,133.249 321.196,128.734 321.437,123.104" id="Fill-115" fill="#F2B499"></path>
            <path d="M328.926,92.249 C328.936,92.881 328.447,93.4 327.832,93.411 C327.218,93.421 326.71,92.919 326.699,92.288 C326.688,91.657 327.178,91.137 327.792,91.126 C328.407,91.115 328.915,91.618 328.926,92.249" id="Fill-116" fill="#1A282B"></path>
            <path d="M330.007,89.863 C329.866,90.013 329.031,89.31 327.831,89.265 C326.633,89.202 325.742,89.827 325.614,89.664 C325.552,89.592 325.696,89.317 326.085,89.033 C326.467,88.751 327.115,88.488 327.862,88.521 C328.61,88.556 329.234,88.875 329.591,89.191 C329.955,89.51 330.075,89.796 330.007,89.863" id="Fill-117" fill="#1A282B"></path>
            <path d="M315.64,92.249 C315.652,92.881 315.161,93.4 314.547,93.411 C313.932,93.421 313.425,92.919 313.414,92.288 C313.403,91.657 313.893,91.137 314.507,91.126 C315.122,91.115 315.63,91.618 315.64,92.249" id="Fill-118" fill="#1A282B"></path>
            <path d="M316.721,90.093 C316.58,90.243 315.745,89.54 314.546,89.495 C313.348,89.432 312.457,90.057 312.329,89.895 C312.266,89.822 312.41,89.547 312.8,89.264 C313.182,88.981 313.83,88.718 314.577,88.751 C315.324,88.786 315.948,89.105 316.305,89.422 C316.669,89.74 316.79,90.026 316.721,90.093" id="Fill-119" fill="#1A282B"></path>
            <path d="M321.225,100.407 C321.22,100.334 321.969,100.226 323.179,100.109 C323.487,100.087 323.778,100.034 323.833,99.813 C323.909,99.578 323.786,99.219 323.644,98.831 C323.368,98.026 323.08,97.182 322.776,96.297 C321.574,92.69 320.709,89.729 320.844,89.681 C320.979,89.634 322.063,92.519 323.266,96.126 C323.555,97.015 323.832,97.863 324.094,98.674 C324.205,99.052 324.397,99.482 324.233,99.968 C324.147,100.21 323.92,100.378 323.722,100.427 C323.525,100.483 323.352,100.48 323.201,100.484 C321.983,100.505 321.228,100.48 321.225,100.407" id="Fill-120" fill="#1A282B"></path>
            <path d="M317.286,101.64 C316.059,100.835 320.672,103.628 323.116,103.586 C323.116,103.586 321.646,105.838 319.164,104.812 C316.586,103.748 317.286,101.64 317.286,101.64" id="Fill-121" fill="#FFFFFE"></path>
            <path d="M321.816,115.643 C321.816,115.643 315.96,115.811 310.223,111.848 C310.223,111.848 312.948,118.356 321.664,117.836 L321.816,115.643" id="Fill-122" fill="#EB916B"></path>
            <path d="M287.585,91.126 C287.554,98.86 285.53,119.309 299.626,122.145 L299.114,93.981 C299.114,93.981 312.763,87.545 315.069,74.14 L315.152,74.216 C316.026,76.239 317.583,80.585 316.637,84.124 L329.419,87.274 L330.89,88.62 C330.89,88.62 335.442,78.647 326.66,69.599 C317.878,60.551 310.374,67.107 305.667,66.542 C302.535,66.167 291.677,66.239 287.255,84.937 L287.585,91.126" id="Fill-123" fill="#1A282B"></path>
            <path d="M299.464,94.296 C298.273,93.56 296.646,94.165 295.7,95.198 C294.212,96.822 293.953,99.445 295.094,101.329 C296.236,103.212 298.682,104.197 300.81,103.628" id="Fill-124" fill="#F2B499"></path>
            <path d="M299.189,100.952 C299.187,101.015 298.789,101.084 298.165,100.915 C297.572,100.758 296.649,100.282 296.296,99.257 C296.123,98.761 296.156,98.217 296.348,97.799 C296.537,97.379 296.838,97.093 297.11,96.911 C297.673,96.549 298.101,96.575 298.106,96.633 C298.129,96.712 297.757,96.823 297.335,97.203 C296.91,97.563 296.501,98.298 296.789,99.091 C297.053,99.881 297.771,100.338 298.29,100.569 C298.821,100.807 299.197,100.873 299.189,100.952" id="Fill-125" fill="#EB916B"></path>
            <path d="M298.022,102.712 C297.374,102.865 297.043,103.758 297.433,104.297 C297.824,104.836 298.777,104.797 299.123,104.229 C299.469,103.66 299.067,102.797 298.408,102.697" id="Fill-126" fill="#DE4D59"></path>
            <path d="M323.927,168.021 L323.927,153.334 C323.927,153.334 302.116,157.859 301.717,167.847 L323.927,168.021" id="Fill-127" fill="#F2B499"></path>
            <path d="M321.657,121.558 C322.014,126.032 324.089,130.347 327.359,133.42 C330.63,136.493 335.066,138.295 339.552,138.373 C342.773,138.43 346.167,137.665 349.106,138.98 C351.663,140.124 353.307,142.601 355.321,144.548 C360.045,149.116 367.378,150.774 373.607,148.683 C376.248,147.796 380.445,145.898 380.936,143.157 C381.31,141.067 378.758,138.991 377.252,137.495 C375.747,135.999 373.802,135.04 371.882,134.137 C356.345,126.84 339.668,121.533 322.528,120.626" id="Fill-128" fill="#1A282B"></path>
        </g>
    </g>
</svg>